#!OML:ASF F:\VICON\USERDATA\INSTALL\rory3\rory3.ASF
:FULLY-SPECIFIED
:DEGREES
667
root 1.97236 18.1948 -14.8763 203.08 25.1443 183.058
lowerback -3.00041 -0.152898 12.7544
upperback -15.4049 6.58259 12.5574
thorax -16.9672 4.53422 6.31766
lowerneck -15.5977 -15.041 0.608473
upperneck -4.49873 -19.7966 1.5471
head 1.16506 -9.77703 -0.711961
rclavicle 4.6118e-014 3.18055e-015
rhumerus -34.4918 -14.0115 9.92541
rradius 16.8795
rwrist 40.3729
rhand -27.9985 28.5063
rfingers 7.12502
rthumb -1.3845 -1.46892
lclavicle 4.6118e-014 3.18055e-015
lhumerus -52.8372 -7.19559 3.18054
lradius 60.9978
lwrist -45.5763
lhand -38.9513 -4.94738
lfingers 7.12502
lthumb -11.9567 24.6911
rfemur -26.5024 5.4103 24.9474
rtibia 24.4083
rfoot 6.83612 -22.1116
rtoes 0.474441
lfemur -41.9513 2.63724 -23.9257
ltibia 32.0543
lfoot 6.40654 29.2498
ltoes 23.7143
668
root 1.95581 18.1751 -14.7786 202.625 22.6686 182.795
lowerback -2.56683 -0.21454 12.0106
upperback -15.5038 6.64779 12.4468
thorax -17.4103 4.6838 6.55738
lowerneck -16.1901 -14.1061 1.82225
upperneck -3.60358 -18.7627 -1.0631
head 1.19628 -9.3523 -1.67016
rclavicle -1.43125e-014 2.22639e-014
rhumerus -35.4988 -18.8063 12.402
rradius 16.4486
rwrist 42.8933
rhand -28.1726 27.9615
rfingers 7.12502
rthumb -1.55259 -2.01262
lclavicle -1.43125e-014 2.22639e-014
lhumerus -52.7402 -5.91264 2.5644
lradius 59.6005
lwrist -46.1406
lhand -38.7998 -5.21956
lfingers 7.12502
lthumb -11.8106 24.4274
rfemur -26.6093 7.06115 24.3882
rtibia 24.856
rfoot 7.04439 -22.7087
rtoes -3.08973
lfemur -42.1912 3.01844 -24.6471
ltibia 31.96
lfoot 9.07361 28.934
ltoes 27.4577
669
root 1.94648 18.1556 -14.6512 201.936 20.7597 181.927
lowerback -1.15468 -0.194413 9.99377
upperback -16.1512 7.02443 12.4631
thorax -18.5457 4.99342 6.92199
lowerneck -16.5388 -13.1594 0.942191
upperneck -1.27069 -17.4057 -1.58407
head 2.11469 -8.68278 -1.81297
rclavicle -9.54166e-015 -3.18055e-015
rhumerus -36.4454 -19.1505 13.2852
rradius 16.5075
rwrist 41.0861
rhand -28.1692 27.6359
rfingers 7.12502
rthumb -1.54931 -2.33824
lclavicle -9.54166e-015 -3.18055e-015
lhumerus -53.0855 -6.29214 2.43978
lradius 59.5633
lwrist -45.4014
lhand -38.7767 -4.6943
lfingers 7.12502
lthumb -11.7883 24.9539
rfemur -26.9931 9.31827 22.9472
rtibia 25.465
rfoot 6.25132 -21.6526
rtoes 2.46747
lfemur -42.467 3.2228 -25.8731
ltibia 31.7958
lfoot 8.99246 28.3604
ltoes 27.8726
670
root 1.92114 18.1518 -14.6225 202.085 17.6159 183.039
lowerback -1.53416 -0.226812 11.2494
upperback -16.1464 7.27763 12.5565
thorax -18.2657 5.03306 6.28133
lowerneck -17.4394 -12.1915 1.25046
upperneck 0.318718 -16.1269 -3.06205
head 2.7071 -8.10685 -2.40972
rclavicle -3.65764e-014 -3.18055e-014
rhumerus -37.6872 -22.1573 15.1053
rradius 16.3051
rwrist 41.4721
rhand -28.1144 26.6036
rfingers 7.12502
rthumb -1.49642 -3.37089
lclavicle -3.65764e-014 -3.18055e-014
lhumerus -53.176 -5.42974 2.05686
lradius 58.9007
lwrist -45.5328
lhand -39.8406 -5.03333
lfingers 7.12502
lthumb -12.8142 24.5534
rfemur -26.6786 9.39053 24.0773
rtibia 25.6778
rfoot 7.54293 -19.9092
rtoes 2.41863
lfemur -42.8512 3.46968 -25.1101
ltibia 31.9963
lfoot 9.34558 27.2822
ltoes 29.9287
671
root 1.90106 18.1321 -14.541 201.501 14.9575 183.068
lowerback -0.991484 -0.230627 11.1628
upperback -16.1137 7.41225 12.3677
thorax -18.5683 5.09342 6.03878
lowerneck -17.027 -11.1149 1.43093
upperneck 0.164819 -14.684 -3.75315
head 2.56106 -7.41348 -2.52373
rclavicle -2.8625e-014 -3.49861e-014
rhumerus -39.1388 -26.2267 17.3842
rradius 15.9648
rwrist 42.9915
rhand -27.9284 25.107
rfingers 7.12502
rthumb -1.31678 -4.86869
lclavicle -2.8625e-014 -3.49861e-014
lhumerus -53.3659 -5.00635 2.05018
lradius 58.4983
lwrist -45.5367
lhand -39.8639 -3.49642
lfingers 7.12502
lthumb -12.8366 26.0889
rfemur -26.2498 10.3393 23.9523
rtibia 25.7638
rfoot 8.1995 -18.817
rtoes 2.61119
lfemur -42.988 3.32849 -25.2306
ltibia 32.3313
lfoot 10.4429 26.4687
ltoes 30.3705
672
root 1.87548 18.1166 -14.4863 201.472 11.6349 183.965
lowerback -1.24856 -0.348922 12.2813
upperback -16.0988 7.54323 12.4376
thorax -18.351 5.09138 5.46897
lowerneck -17.8574 -9.97522 1.62099
upperneck 1.62467 -13.1075 -5.02143
head 2.81253 -6.7045 -2.70389
rclavicle 7.4743e-014 -2.63986e-013
rhumerus -40.4071 -28.1566 18.8265
rradius 15.8217
rwrist 42.2217
rhand -27.246 23.9517
rfingers 7.12502
rthumb -0.657687 -6.02698
lclavicle 7.4743e-014 -2.63986e-013
lhumerus -53.5339 -4.16934 1.69196
lradius 57.5397
lwrist -45.1575
lhand -38.4256 -4.83684
lfingers 7.12502
lthumb -11.4497 24.8305
rfemur -25.9508 10.3473 24.9415
rtibia 25.4555
rfoot 9.85898 -16.5996
rtoes -1.2466
lfemur -43.6011 3.15087 -24.5133
ltibia 32.9189
lfoot 12.9041 24.8428
ltoes 26.8795
673
root 1.85722 18.0963 -14.3893 201.305 8.3182 184.801
lowerback -1.49155 -0.334343 13.5728
upperback -15.5338 7.57016 12.0545
thorax -18.1718 5.10163 4.97285
lowerneck -19.8557 -8.79104 2.38108
upperneck 3.48122 -11.4934 -6.81237
head 3.60716 -6.02 -3.42523
rclavicle -1.74931e-014 6.36111e-015
rhumerus -41.2694 -27.8467 18.6879
rradius 15.9532
rwrist 38.3259
rhand -26.0855 23.1466
rfingers 7.12502
rthumb 0.463175 -6.8326
lclavicle -1.74931e-014 6.36111e-015
lhumerus -53.5631 -2.57963 1.365
lradius 56.4287
lwrist -45.1977
lhand -37.3492 -4.27273
lfingers 7.12502
lthumb -10.4115 25.4495
rfemur -25.9593 10.8491 25.8242
rtibia 25.349
rfoot 11.4381 -14.9704
rtoes -3.19447
lfemur -44.3112 2.78556 -23.6455
ltibia 33.3581
lfoot 15.0084 23.7619
ltoes 25.3447
674
root 1.86454 18.0849 -14.3303 200.914 5.18224 185.121
lowerback -2.41247 -0.23242 13.7903
upperback -14.9184 7.29848 12.0004
thorax -16.6368 4.96228 4.83469
lowerneck -20.013 -7.68059 2.44087
upperneck 2.55281 -9.9528 -7.08155
head 3.41128 -5.2342 -3.38495
rclavicle -3.49861e-014 4.77083e-014
rhumerus -41.5775 -26.5192 16.89
rradius 16.3692
rwrist 32.6036
rhand -25.2379 21.0235
rfingers 7.12502
rthumb 1.28178 -8.95241
lclavicle -3.49861e-014 4.77083e-014
lhumerus -53.6416 -0.358152 1.18154
lradius 55.4233
lwrist -45.233
lhand -37.3073 -4.36916
lfingers 7.12502
lthumb -10.3711 25.3551
rfemur -25.6056 11.6166 26.1296
rtibia 25.039
rfoot 12.1853 -14.3222
rtoes -2.58886
lfemur -44.7415 2.68042 -23.3868
ltibia 33.826
lfoot 16.6128 22.0983
ltoes 24.5104
675
root 1.84265 18.0736 -14.2662 200.339 1.88725 185.484
lowerback -2.21132 -0.387067 14.4009
upperback -14.9505 7.34652 11.8818
thorax -16.7939 4.94708 4.33247
lowerneck -20.0095 -6.57103 2.69229
upperneck 3.13241 -8.3902 -8.25175
head 3.62373 -4.52469 -3.69292
rclavicle -7.63333e-014 2.35361e-013
rhumerus -41.8304 -25.0512 15.797
rradius 16.7157
rwrist 28.7107
rhand -24.7501 18.779
rfingers 7.12502
rthumb 1.75292 -11.1936
lclavicle -7.63333e-014 2.35361e-013
lhumerus -53.8734 0.2465 1.01812
lradius 54.6362
lwrist -45.2
lhand -38.0496 -6.14166
lfingers 7.12502
lthumb -11.0871 23.5455
rfemur -25.1778 11.1747 26.685
rtibia 25.0124
rfoot 12.817 -12.7858
rtoes -4.02896
lfemur -44.7955 2.45184 -23.1795
ltibia 34.061
lfoot 18.5625 20.4293
ltoes 23.0749
676
root 1.80321 18.0615 -14.2017 200.056 -1.71098 186.503
lowerback -2.72013 6.63751 15.6845
upperback -16.3768 5.80219 10.1723
thorax -16.6307 -0.550479 3.37023
lowerneck -20.4211 -5.04106 2.92992
upperneck 3.9791 -6.93336 -9.40628
head 4.00324 -4.12717 -4.04361
rclavicle -4.21423e-014 1.74931e-013
rhumerus -43.4178 -27.6545 17.8482
rradius 16.4375
rwrist 29.5499
rhand -24.1043 18.2755
rfingers 7.12502
rthumb 2.37668 -11.691
lclavicle -4.21423e-014 1.74931e-013
lhumerus -53.8978 1.13345 1.01282
lradius 53.8276
lwrist -45.2179
lhand -38.8093 -7.72534
lfingers 7.12502
lthumb -11.8198 21.9211
rfemur -25.2011 9.41382 28.1076
rtibia 25.1723
rfoot 13.3103 -9.75674
rtoes -9.50387
lfemur -45.1367 2.38155 -22.4932
ltibia 34.0791
lfoot 21.2199 18.9991
ltoes 23.0836
677
root 1.84384 18.0362 -14.0963 199.466 -4.42216 186.266
lowerback -1.99385 6.45694 14.8219
upperback -16.5165 5.97567 10.0142
thorax -17.3641 -0.288901 3.59981
lowerneck -20.0555 -3.9292 2.93186
upperneck 4.69869 -5.33358 -10.3003
head 4.26546 -3.41254 -4.21036
rclavicle 3.4191e-014 -7.31528e-014
rhumerus -44.4978 -28.6683 19.2152
rradius 16.3133
rwrist 29.4917
rhand -23.4551 17.4651
rfingers 7.12502
rthumb 3.00363 -12.4935
lclavicle 3.4191e-014 -7.31528e-014
lhumerus -54.1141 0.778467 1.35266
lradius 53.5357
lwrist -45.094
lhand -38.283 -7.39715
lfingers 7.12502
lthumb -11.3122 22.2778
rfemur -25.3826 11.0442 27.8352
rtibia 25.5809
rfoot 13.0808 -10.7487
rtoes -12.9044
lfemur -45.1941 2.53704 -22.8401
ltibia 33.8378
lfoot 22.1547 18.0453
ltoes 23.5813
678
root 1.87769 18.0168 -14.0142 198.802 -7.15858 185.856
lowerback -1.64043 6.16127 13.9256
upperback -16.1877 5.9741 9.77098
thorax -17.2072 -0.00769621 3.65814
lowerneck -20.4042 -2.67231 3.24014
upperneck 5.22684 -3.65511 -10.9705
head 4.59507 -2.66382 -4.36252
rclavicle -4.21423e-014 2.22639e-014
rhumerus -44.8661 -27.3486 17.7359
rradius 16.6929
rwrist 25.6576
rhand -23.1354 15.2008
rfingers 7.12502
rthumb 3.31237 -14.7532
lclavicle -4.21423e-014 2.22639e-014
lhumerus -54.1408 1.59015 1.36816
lradius 53.0678
lwrist -45.5871
lhand -37.5112 -6.3824
lfingers 7.12502
lthumb -10.5678 23.3319
rfemur -25.3867 12.0258 27.4572
rtibia 26.0833
rfoot 12.5782 -12.2725
rtoes -12.8724
lfemur -45.0019 2.93232 -23.6083
ltibia 33.5971
lfoot 21.2258 15.4888
ltoes 18.9678
679
root 1.90835 17.9919 -13.9389 198.077 -10.0628 185.578
lowerback -1.09187 5.76957 13.3889
upperback -16.6369 5.716 9.43192
thorax -18.218 -0.0606893 3.60877
lowerneck -18.1138 -1.33716 4.21794
upperneck 5.37652 -1.93938 -11.8012
head 4.4042 -1.7879 -4.58513
rclavicle 9.70069e-014 -9.85972e-014
rhumerus -44.5933 -24.856 16.0025
rradius 16.9467
rwrist 22.9752
rhand -22.8543 13.6045
rfingers 7.12502
rthumb 3.58376 -16.3451
lclavicle 9.70069e-014 -9.85972e-014
lhumerus -54.5462 -0.0326757 1.16262
lradius 52.9018
lwrist -45.229
lhand -37.0259 -5.89973
lfingers 7.12502
lthumb -10.0996 23.8379
rfemur -25.3699 12.3884 27.3683
rtibia 26.8432
rfoot 12.1288 -13.2931
rtoes -12.2863
lfemur -44.6079 3.37617 -24.2608
ltibia 33.2537
lfoot 21.705 13.5679
ltoes 14.6333
680
root 1.92521 17.9613 -13.8468 197.896 -12.9353 186.084
lowerback -1.70698 5.65564 13.3276
upperback -16.3942 5.55846 9.59505
thorax -17.5131 -0.0198755 3.79047
lowerneck -18.5228 0.183109 4.82285
upperneck 6.43332 0.134908 -12.6272
head 4.98329 -0.863661 -4.80462
rclavicle -1.06549e-013 1.97194e-013
rhumerus -45.3442 -27.6295 17.6089
rradius 16.4404
rwrist 25.0758
rhand -22.2035 13.6474
rfingers 7.12502
rthumb 4.21223 -16.2907
lclavicle -1.06549e-013 1.97194e-013
lhumerus -55.0291 1.88132 0.295312
lradius 51.2714
lwrist -46.617
lhand -37.7117 -7.2508
lfingers 7.12502
lthumb -10.7612 22.4536
rfemur -26.1307 11.8063 28.0612
rtibia 27.542
rfoot 12.3339 -12.6459
rtoes -14.6201
lfemur -45.0068 3.74674 -24.0991
ltibia 32.9507
lfoot 21.5511 13.3652
ltoes 14.7272
681
root 1.94607 17.9267 -13.7541 197.731 -15.7979 186.387
lowerback -1.54893 5.69247 13.5102
upperback -16.8827 5.74756 9.19978
thorax -18.2305 -0.00765506 3.26799
lowerneck -18.2314 1.29827 5.42074
upperneck 8.35817 1.81715 -13.2602
head 5.70838 -0.104962 -4.98303
rclavicle -1.33583e-013 3.18055e-015
rhumerus -46.1089 -27.6937 18.3271
rradius 16.2338
rwrist 26.0512
rhand -21.7124 13.708
rfingers 7.12502
rthumb 4.68644 -16.2201
lclavicle -1.33583e-013 3.18055e-015
lhumerus -54.844 1.29579 -0.0339808
lradius 50.4491
lwrist -46.9244
lhand -38.111 -7.75446
lfingers 7.12502
lthumb -11.1463 21.9295
rfemur -26.9168 11.1077 28.5312
rtibia 28.2225
rfoot 12.5635 -12.1067
rtoes -16.7988
lfemur -45.4327 3.96872 -24.1359
ltibia 32.7664
lfoot 20.8778 13.6593
ltoes 15.0999
